<svg width="1500" height="500" viewBox="0 0 1500 500" fill="none" xmlns="http://www.w3.org/2000/svg">
<g clip-path="url(#clip0_2528_2881)">
<path d="M1312.4 396.571H1245.34C1182.06 396.571 1143.66 366.826 1143.66 298.683V192.683H1100.94V125.621H1143.66V73.1621H1224.78V125.621H1312.4V192.683H1224.78V289.489C1224.78 316.53 1235.06 323.561 1263.72 323.561H1312.4V396.571Z" fill="#6E3AEB"/>
<path d="M1101.92 396.571H1034.86C971.582 396.571 933.184 366.826 933.184 298.683V192.683H890.459V125.621H933.184V73.1621H1014.31V125.621H1101.92V192.683H1014.31V289.489C1014.31 316.53 1024.58 323.561 1053.25 323.561H1101.92V396.571Z" fill="#6E3AEB"/>
<path d="M744.15 401.974C652.751 401.974 602.455 366.28 602.455 303.545V301.923H683.578V306.79C683.578 331.127 698.721 337.617 744.69 337.617C787.956 337.617 798.231 330.586 798.231 314.362C798.231 299.219 790.119 294.892 758.211 290.566L681.956 281.372C627.874 275.423 597.588 251.086 597.588 205.657C597.588 158.065 638.149 120.208 731.17 120.208C819.864 120.208 870.16 153.739 870.16 219.719V221.341H789.038V218.096C789.038 195.923 778.221 184.565 728.466 184.565C687.905 184.565 677.629 191.596 677.629 208.902C677.629 222.963 685.2 228.912 720.894 233.239L778.762 240.27C851.232 248.382 878.273 272.719 878.273 317.607C878.273 368.444 827.976 401.974 744.15 401.974Z" fill="#6E3AEB"/>
<path d="M438.691 400.556C345.307 400.556 302.207 355.461 302.207 284.426V129.186H377.233V278.439C377.233 316.351 388.008 327.925 438.691 327.925C489.373 327.925 500.148 316.351 500.148 278.439V129.186H575.174V284.426C575.174 355.461 532.074 400.556 438.691 400.556Z" fill="#6E3AEB"/>
<path d="M269.953 98.0372H188.831V34.2207H269.953V98.0372ZM160.708 488.508H147.188V427.936H161.79C179.637 427.936 188.831 420.906 188.831 401.977V125.619H269.953V388.997C269.953 465.794 228.31 488.508 160.708 488.508Z" fill="#6E3AEB"/>
</g>
<defs>
<clipPath id="clip0_2528_2881">
<rect width="1500" height="500" fill="white"/>
</clipPath>
</defs>
</svg>
